<svg width="61" height="61" viewBox="0 0 61 61" fill="none" xmlns="http://www.w3.org/2000/svg">
<circle cx="30.5" cy="30.5" r="29.5" stroke="#764AA6" stroke-width="2"/>
<circle cx="30.5" cy="30.5" r="26.5" fill="#A9109E"/>
<path d="M32.0416 34.2219L31.5749 35.8284C31.1036 37.4508 30.868 38.262 30.5051 38.4675C30.1917 38.6449 29.8083 38.6449 29.4949 38.4675C29.132 38.262 28.8964 37.4508 28.4251 35.8284L27.9584 34.2219L27.9584 34.2219C27.7792 33.6049 27.6896 33.2965 27.522 33.043C27.3736 32.8186 27.1814 32.6264 26.957 32.478C26.7035 32.3104 26.3951 32.2208 25.7781 32.0416L25.7781 32.0416L24.1716 31.5749C22.5492 31.1036 21.738 30.868 21.5325 30.5051C21.3551 30.1917 21.3551 29.8083 21.5325 29.4949C21.738 29.132 22.5492 28.8964 24.1716 28.4251L25.7781 27.9584L25.7781 27.9584C26.3951 27.7792 26.7035 27.6896 26.957 27.522C27.1814 27.3736 27.3736 27.1814 27.522 26.957C27.6896 26.7035 27.7792 26.3951 27.9584 25.7781L27.9584 25.7781L28.4251 24.1716C28.8964 22.5492 29.132 21.738 29.4949 21.5325C29.8083 21.3551 30.1917 21.3551 30.5051 21.5325C30.868 21.738 31.1036 22.5492 31.5749 24.1716L32.0416 25.7781L32.0416 25.7781C32.2208 26.3951 32.3104 26.7035 32.478 26.957C32.6264 27.1814 32.8186 27.3736 33.043 27.522C33.2965 27.6896 33.6049 27.7792 34.2219 27.9584L34.2219 27.9584L35.8284 28.4251C37.4508 28.8964 38.262 29.132 38.4675 29.4949C38.6449 29.8083 38.6449 30.1917 38.4675 30.5051C38.262 30.868 37.4508 31.1036 35.8284 31.5749L34.2219 32.0416L34.2219 32.0416C33.6049 32.2208 33.2965 32.3104 33.043 32.478C32.8186 32.6264 32.6264 32.8186 32.478 33.043C32.3104 33.2965 32.2208 33.6049 32.0416 34.2219L32.0416 34.2219Z" stroke="#F5F5F5" stroke-width="1.5"/>
<path d="M23.4228 23.9495L23.0113 25.2037C22.9285 25.456 22.5715 25.456 22.4887 25.2037L22.0772 23.9495C21.9954 23.7002 21.7998 23.5046 21.5505 23.4228L20.2963 23.0113C20.044 22.9285 20.044 22.5715 20.2963 22.4887L21.5505 22.0772C21.7998 21.9954 21.9954 21.7998 22.0772 21.5505L22.4887 20.2963C22.5715 20.044 22.9285 20.044 23.0113 20.2963L23.4228 21.5505C23.5046 21.7998 23.7002 21.9954 23.9495 22.0772L25.2037 22.4887C25.456 22.5715 25.456 22.9285 25.2037 23.0113L23.9495 23.4228C23.7002 23.5046 23.5046 23.7002 23.4228 23.9495Z" fill="#FFBC0F"/>
<path d="M37.9228 38.4495L37.5113 39.7037C37.4285 39.956 37.0715 39.956 36.9887 39.7037L36.5772 38.4495C36.4954 38.2002 36.2998 38.0046 36.0505 37.9228L34.7963 37.5113C34.544 37.4285 34.544 37.0715 34.7963 36.9887L36.0505 36.5772C36.2998 36.4954 36.4954 36.2998 36.5772 36.0505L36.9887 34.7963C37.0715 34.544 37.4285 34.544 37.5113 34.7963L37.9228 36.0505C38.0046 36.2998 38.2002 36.4954 38.4495 36.5772L39.7037 36.9887C39.956 37.0715 39.956 37.4285 39.7037 37.5113L38.4495 37.9228C38.2002 38.0046 38.0046 38.2002 37.9228 38.4495Z" fill="#FFBC0F"/>
</svg>
